<?xml version="1.0" encoding="utf-8"?>
<!-- Generator: Adobe Illustrator 22.1.0, SVG Export Plug-In . SVG Version: 6.00 Build 0)  -->
<svg version="1.1" id="Layer_1" xmlns="http://www.w3.org/2000/svg" xmlns:xlink="http://www.w3.org/1999/xlink" x="0px" y="0px"
	 viewBox="0 0 252 252" style="enable-background:new 0 0 252 252;" xml:space="preserve">
<style type="text/css">
	.st0{fill:#FFF57D;}
	.st1{fill:#A32D1A;}
	.st2{fill:#F05E3D;}
	.st3{fill:#EFDF4B;}
	.st4{fill:#20AFAF;}
	.st5{fill:#6CDDDA;}
	.st6{fill:#3A827C;}
	.st7{fill:#C73514;}
	.st8{fill:#A3A158;}
	.st9{fill:none;}
</style>
<title>Asset 1</title>
<g id="Layer_2_1_">
	<g id="Layer_1-2">
		<polygon class="st0" points="109.6,155.1 184.6,132.4 122.4,71.1 		"/>
		<polygon class="st1" points="229.7,71.1 184.6,132.4 248.4,128.7 		"/>
		<polygon class="st2" points="193,24.7 184.6,132.4 229.7,71.1 		"/>
		<polygon class="st3" points="122.4,71.1 193,24.7 184.6,132.4 		"/>
		<polygon class="st4" points="141.5,6 77.8,10.5 122.4,71.1 		"/>
		<polygon class="st5" points="141.5,6 193,24.7 122.4,71.1 		"/>
		<polygon class="st6" points="77.8,10.5 29.5,52.4 122.4,71.1 		"/>
		<polygon class="st7" points="95.6,109.5 122.4,71.1 29.5,52.4 		"/>
		<polygon class="st5" points="51.4,172.8 41.7,219.9 89.4,246 		"/>
		<path class="st8" d="M51.4,172.8"/>
		<polygon class="st4" points="51.4,172.8 89.4,246 109.6,155.1 		"/>
		<polygon class="st0" points="89.4,246 133.4,193.6 155.5,246 		"/>
		<path class="st3" d="M133.4,193.6l22.1,52.4c0,0,53.2-31.2,51.7-29.8L133.4,193.6z"/>
		<polygon class="st5" points="133.4,193.6 184.6,132.4 207.2,216.2 		"/>
		<polygon class="st4" points="184.6,132.4 207.2,216.2 248.4,128.7 		"/>
		<polygon class="st3" points="122.4,71.1 79.6,132.4 109.6,155.1 		"/>
		<polygon class="st0" points="51.4,172.8 79.6,132.4 109.6,155.1 		"/>
		<polygon class="st6" points="109.6,155.1 133.4,193.6 184.6,132.4 		"/>
		<polygon class="st1" points="109.6,155.1 89.4,246 133.4,193.6 		"/>
		<polygon class="st1" points="29.5,52.4 73.2,141.5 95.6,109.5 		"/>
		<polygon class="st2" points="29.5,52.4 3.6,101.7 59.3,113.1 		"/>
		<polyline class="st1" points="3.6,101.7 9.4,174.3 31.4,147.3 59.3,113.1 		"/>
		<polygon class="st5" points="59.3,113.1 36.1,141.5 73.2,141.5 		"/>
		<polygon class="st4" points="36.1,141.5 73.2,141.5 51.4,172.8 		"/>
		<polygon class="st0" points="51.4,172.8 36.1,141.5 9.4,174.3 		"/>
		<polygon class="st3" points="9.4,174.3 51.4,172.8 41.7,219.9 		"/>
	</g>
</g>
<rect x="-29" y="-29" class="st9" width="310" height="310"/>
</svg>
